<?xml version="1.0" encoding="UTF-8"?>
<svg version="1.1" xmlns="http://www.w3.org/2000/svg" width="96" height="96">
<path d="M0 0 C31.68 0 63.36 0 96 0 C96 31.68 96 63.36 96 96 C64.32 96 32.64 96 0 96 C0 64.32 0 32.64 0 0 Z " fill="#2F4D6B" transform="translate(0,0)"/>
<path d="M0 0 C3.25 1.0625 3.25 1.0625 5.25 3.0625 C6.04317744 9.14602132 4.16004954 12.53861972 0.625 17.25 C-0.38295501 18.65224132 -1.39076013 20.0545904 -2.3984375 21.45703125 C-2.93952148 22.19775879 -3.48060547 22.93848633 -4.03808594 23.70166016 C-7.08567705 27.90448476 -10.03310693 32.17754069 -13 36.4375 C-14.68172516 38.83835556 -16.36537318 41.23769122 -18.05664062 43.63183594 C-19.24273971 45.33437378 -20.40634271 47.05270285 -21.55273438 48.78222656 C-22.14892578 49.67135742 -22.74511719 50.56048828 -23.359375 51.4765625 C-24.15553223 52.68626709 -24.15553223 52.68626709 -24.96777344 53.92041016 C-27.44316419 56.89562639 -30.12511354 58.71243469 -33.92578125 59.53125 C-39.21361602 59.60858579 -42.90708747 58.60792537 -47.28125 55.5703125 C-48.75 54.0625 -48.75 54.0625 -49.3125 50.8125 C-48.75 48.0625 -48.75 48.0625 -47.75 47.0625 C-41.35465116 47.76017442 -41.35465116 47.76017442 -38.75 49.0625 C-38.43998047 48.60738037 -38.12996094 48.15226074 -37.81054688 47.68334961 C-33.80162646 41.80199494 -29.77901614 35.9301039 -25.75 30.0625 C-25.0605127 29.05783691 -24.37102539 28.05317383 -23.66064453 27.01806641 C-21.54925984 23.94629998 -19.43170601 20.87887446 -17.3125 17.8125 C-16.65121094 16.84948975 -15.98992188 15.88647949 -15.30859375 14.89428711 C-5.04650447 0.08410841 -5.04650447 0.08410841 0 0 Z " fill="#F9FAFA" transform="translate(75.75,18.9375)"/>
<path d="M0 0 C3.4375 0.8125 3.4375 0.8125 5.4375 2.8125 C5.88841675 6.27193333 5.76156422 9.76454434 5.75 13.25 C5.76611328 14.21744141 5.78222656 15.18488281 5.79882812 16.18164062 C5.79979492 17.57479492 5.79979492 17.57479492 5.80078125 18.99609375 C5.80525269 20.27311157 5.80525269 20.27311157 5.80981445 21.57592773 C5.35520563 24.30685985 4.64977258 25.18809044 2.4375 26.8125 C-2.69198997 27.45368625 -2.69198997 27.45368625 -5.22509766 25.58789062 C-6.96120243 23.28322579 -6.94945477 21.8986513 -6.9609375 19.03125 C-6.96480469 18.10699219 -6.96867187 17.18273437 -6.97265625 16.23046875 C-6.96105469 15.26753906 -6.94945312 14.30460937 -6.9375 13.3125 C-6.94910156 12.34957031 -6.96070313 11.38664062 -6.97265625 10.39453125 C-6.96878906 9.47027344 -6.96492188 8.54601562 -6.9609375 7.59375 C-6.95755371 6.74876953 -6.95416992 5.90378906 -6.95068359 5.03320312 C-6.5625 2.8125 -6.5625 2.8125 -5.26025391 1.00195312 C-3.5625 -0.1875 -3.5625 -0.1875 0 0 Z " fill="#FCFCFC" transform="translate(40.5625,18.1875)"/>
<path d="M0 0 C3.4375 0.8125 3.4375 0.8125 5.4375 2.8125 C5.88841675 6.27193333 5.76156422 9.76454434 5.75 13.25 C5.76611328 14.21744141 5.78222656 15.18488281 5.79882812 16.18164062 C5.79979492 17.57479492 5.79979492 17.57479492 5.80078125 18.99609375 C5.80525269 20.27311157 5.80525269 20.27311157 5.80981445 21.57592773 C5.35520563 24.30685985 4.64977258 25.18809044 2.4375 26.8125 C-2.69198997 27.45368625 -2.69198997 27.45368625 -5.22509766 25.58789062 C-6.96120243 23.28322579 -6.94945477 21.8986513 -6.9609375 19.03125 C-6.96480469 18.10699219 -6.96867188 17.18273437 -6.97265625 16.23046875 C-6.96105469 15.26753906 -6.94945312 14.30460937 -6.9375 13.3125 C-6.94910156 12.34957031 -6.96070313 11.38664062 -6.97265625 10.39453125 C-6.96878906 9.47027344 -6.96492187 8.54601562 -6.9609375 7.59375 C-6.95755371 6.74876953 -6.95416992 5.90378906 -6.95068359 5.03320312 C-6.5625 2.8125 -6.5625 2.8125 -5.26025391 1.00195312 C-3.5625 -0.1875 -3.5625 -0.1875 0 0 Z " fill="#FCFCFC" transform="translate(22.5625,18.1875)"/>
</svg>